<svg width="54" height="50" viewBox="0 0 54 50" fill="none" xmlns="http://www.w3.org/2000/svg" xmlns:xlink="http://www.w3.org/1999/xlink">
<path d="M49.968,46.265C47.28,48.755 44.03,50 40.218,50C36.405,50 33.164,48.747 30.493,46.24L27.753,43.75L33.708,40.626L35.026,41.797C36.396,43.099 38.074,43.75 40.059,43.75C42.045,43.75 43.74,43.099 45.145,41.797C46.551,40.495 47.254,38.925 47.254,37.086C47.254,35.247 46.551,33.692 45.145,32.423L35.237,23.195L39.242,18.263L49.942,28.224C52.647,30.698 54,33.7 54,37.232C54,40.764 52.656,43.775 49.968,46.265ZM12.205,19.093L30.388,25.001L28.701,31.251L10.254,24.904C6.565,24.025 3.772,22.072 1.874,19.045C-0.023,16.017 -0.48,12.811 0.504,9.426C1.488,6.041 3.631,3.477 6.934,1.736C10.237,-0.005 13.733,-0.437 17.422,0.442L28.701,4.69L27.015,10.94L15.894,6.35C13.997,5.894 12.187,6.122 10.465,7.034C8.744,7.945 7.619,9.28 7.092,11.037C6.565,12.795 6.802,14.463 7.804,16.042C8.805,17.621 10.272,18.638 12.205,19.093Z" fill="#FFFFFF"/>
<path d="M49.968,46.265C47.28,48.755 44.03,50 40.218,50C36.405,50 33.164,48.747 30.493,46.24L27.753,43.75L33.708,40.626L35.026,41.797C36.396,43.099 38.074,43.75 40.059,43.75C42.045,43.75 43.74,43.099 45.145,41.797C46.551,40.495 47.254,38.925 47.254,37.086C47.254,35.247 46.551,33.692 45.145,32.423L35.237,23.195L39.242,18.263L49.942,28.224C52.647,30.698 54,33.7 54,37.232C54,40.764 52.656,43.775 49.968,46.265ZM12.205,19.093L30.388,25.001L28.701,31.251L10.254,24.904C6.565,24.025 3.772,22.072 1.874,19.045C-0.023,16.017 -0.48,12.811 0.504,9.426C1.488,6.041 3.631,3.477 6.934,1.736C10.237,-0.005 13.733,-0.437 17.422,0.442L28.701,4.69L27.015,10.94L15.894,6.35C13.997,5.894 12.187,6.122 10.465,7.034C8.744,7.945 7.619,9.28 7.092,11.037C6.565,12.795 6.802,14.463 7.804,16.042C8.805,17.621 10.272,18.638 12.205,19.093Z" fill="#FFFFFF"/>
</svg>
