<svg width="66" height="70" viewBox="0 0 66 70" fill="none" xmlns="http://www.w3.org/2000/svg" xmlns:xlink="http://www.w3.org/1999/xlink">
<path d="M21.75,66L44.25,66C45.244,65.999 46.198,65.547 46.901,64.743C47.604,63.94 47.999,62.851 48,61.714L48,55.286L44.25,55.286L44.25,61.714L21.75,61.714L21.75,10.286L44.25,10.286L44.25,16.714L48,16.714L48,10.286C47.999,9.149 47.604,8.06 46.901,7.257C46.198,6.453 45.244,6.001 44.25,6L21.75,6C20.756,6.001 19.802,6.453 19.099,7.257C18.396,8.06 18.001,9.149 18,10.286L18,61.714C18.001,62.851 18.396,63.94 19.099,64.743C19.802,65.547 20.756,65.999 21.75,66Z" fill="#FFFFFF"/>
<path d="M51.172,45.157L58.344,37.313L30,37.313L30,32.938L58.344,32.938L51.172,25.093L54,22L66,35.125L54,48.25L51.172,45.157Z" fill="#FFFFFF"/>
</svg>
