<svg width="58" height="60" viewBox="0 0 58 60" fill="none" xmlns="http://www.w3.org/2000/svg" xmlns:xlink="http://www.w3.org/1999/xlink">
<path d="M48.406,31.746L48.406,26.903C48.406,26.247 48.17,25.68 47.696,25.201C47.222,24.722 46.661,24.482 46.013,24.482L27.244,24.482L34.311,17.332C34.784,16.852 35.021,16.285 35.021,15.629C35.021,14.973 34.784,14.406 34.311,13.927L30.908,10.484C30.46,10.03 29.899,9.803 29.226,9.803C28.553,9.803 27.992,10.03 27.543,10.484L14.008,24.179L10.606,27.622C10.157,28.076 9.933,28.643 9.933,29.324C9.933,30.005 10.157,30.573 10.606,31.027L14.008,34.47L27.543,48.165C27.992,48.619 28.553,48.846 29.226,48.846C29.899,48.846 30.46,48.619 30.908,48.165L34.311,44.722C34.759,44.268 34.984,43.701 34.984,43.02C34.984,42.339 34.759,41.771 34.311,41.317L27.244,34.167L46.013,34.167C46.661,34.167 47.222,33.927 47.696,33.448C48.17,32.969 48.406,32.402 48.406,31.746ZM57.978,29.324C57.978,34.596 56.694,39.457 54.127,43.909C51.559,48.36 48.076,51.885 43.677,54.483C39.277,57.081 34.473,58.38 29.263,58.38C24.054,58.38 19.249,57.081 14.85,54.483C10.45,51.885 6.967,48.36 4.399,43.909C1.832,39.457 0.548,34.596 0.548,29.324C0.548,24.053 1.832,19.192 4.399,14.74C6.967,10.289 10.45,6.764 14.85,4.166C19.249,1.568 24.054,0.269 29.263,0.269C34.473,0.269 39.277,1.568 43.677,4.166C48.076,6.764 51.559,10.289 54.127,14.74C56.694,19.192 57.978,24.053 57.978,29.324Z" transform="rotate(-358.755 29.263 29.325)" fill="#FFFFFF"/>
</svg>
